<svg xmlns="http://www.w3.org/2000/svg" xmlns:xlink="http://www.w3.org/1999/xlink" width="1080" zoomAndPan="magnify" viewBox="0 0 810 809.999993" height="1080" preserveAspectRatio="xMidYMid meet" version="1.0"><path fill="#ffcb00" d="M 320.046875 70.089844 C 320.289062 69.765625 320.53125 69.4375 320.777344 69.117188 C 327.230469 60.585938 335 52.96875 343.332031 46.273438 C 350.335938 40.644531 357.855469 35.507812 365.667969 31.0625 C 371.703125 27.625 377.761719 24.957031 384.390625 22.882812 C 391.425781 20.679688 398.527344 19.066406 405.898438 18.503906 C 414.222656 17.863281 422.316406 18.628906 430.53125 19.964844 C 437.109375 21.035156 443.640625 22.371094 450.128906 23.867188 C 457.265625 25.507812 463.746094 27.386719 469.824219 30.847656 C 479.320312 28.691406 488.957031 27.125 498.601562 25.816406 C 506.46875 24.75 514.363281 23.847656 522.300781 23.59375 C 527.496094 23.425781 532.589844 23.675781 537.753906 24.261719 C 553.582031 26.058594 566.582031 36.710938 571.453125 51.878906 C 574.570312 61.566406 573.902344 71.710938 569.933594 80.558594 C 703.671875 134.6875 798.019531 265.816406 798.019531 418.976562 C 798.019531 620.515625 634.648438 783.914062 433.144531 783.914062 C 365.835938 783.914062 302.785156 765.679688 248.65625 733.890625 C 245.230469 736.921875 241.730469 739.84375 238.164062 742.636719 C 223.96875 753.742188 208.152344 763.082031 191.34375 769.632812 C 178.683594 774.5625 165.863281 777.476562 152.574219 780.054688 C 145.492188 781.433594 138.363281 780.882812 131.832031 778.636719 C 130.195312 779.558594 128.554688 780.476562 126.917969 781.394531 C 110.03125 790.882812 88.863281 786.984375 76.457031 772.105469 C 72.035156 766.792969 68.40625 761.355469 65.179688 755.25 C 59.671875 744.84375 55.421875 733.6875 52.097656 722.398438 C 47.636719 707.28125 44.554688 691.601562 42.546875 675.972656 C 40.347656 658.921875 39.78125 642.046875 41.746094 624.941406 C 43.636719 608.542969 47.523438 591.996094 52.863281 576.382812 C 57 564.296875 62.207031 552.777344 69.652344 542.34375 C 72.261719 538.675781 75.109375 535.195312 78.1875 531.933594 C 77.816406 526.0625 78.703125 520.113281 80.890625 514.480469 C 72.664062 484.039062 68.265625 452.019531 68.265625 418.976562 C 68.265625 359.285156 82.601562 302.941406 108.007812 253.191406 L 78.550781 258.210938 C 77.617188 258.371094 76.703125 258.480469 75.796875 258.539062 C 62.714844 259.625 50.101562 252.519531 44.332031 240.515625 L 9.148438 167.332031 C 8.9375 166.886719 8.761719 166.5 8.574219 166.039062 C 2.902344 152.222656 7.71875 136.570312 19.277344 128.085938 C 16.652344 104.742188 21.027344 78.527344 45.363281 71.441406 C 113.792969 48.660156 181.964844 25.125 250.390625 2.347656 C 282.273438 -9.257812 304.015625 24.679688 313.707031 49.777344 C 316.1875 56.207031 318.40625 63.117188 320.046875 70.089844 Z M 320.046875 70.089844 " fill-opacity="1" fill-rule="evenodd"/><path stroke-linecap="butt" transform="matrix(6.321899, 0, 0, 6.322922, -1479.978666, -569.935559)" fill-opacity="1" fill="#131610" fill-rule="evenodd" stroke-linejoin="miter" d="M 302.618428 102.509288 C 332.382278 102.509288 356.510337 126.637769 356.510337 156.40113 C 356.510337 186.165109 332.382278 210.29359 302.618428 210.29359 C 272.854577 210.29359 248.726518 186.165109 248.726518 156.40113 C 248.726518 126.637769 272.854577 102.509288 302.618428 102.509288 Z M 302.618428 102.509288 " stroke="#131610" stroke-width="2.126" stroke-opacity="1" stroke-miterlimit="4"/><path fill="#ffcb00" d="M 112.472656 418.972656 C 112.472656 445.625 115.722656 471.519531 121.851562 496.277344 C 134.410156 492.023438 143.601562 488.882812 143.601562 488.882812 C 156.296875 391.992188 206.972656 333.558594 307.863281 325.972656 C 344.328125 317.109375 369.089844 292.996094 373.59375 242.476562 C 419.445312 251.949219 465.296875 261.421875 511.144531 270.890625 C 511.886719 279.023438 512.625 287.160156 513.363281 295.296875 C 533.664062 294.121094 582.039062 373.320312 645.898438 372.804688 C 674.820312 382.257812 708.742188 448.292969 733.625 531.226562 C 746.675781 496.289062 753.816406 458.464844 753.816406 418.972656 C 753.816406 241.851562 610.242188 98.253906 433.140625 98.253906 C 256.046875 98.253906 112.472656 241.851562 112.472656 418.972656 Z M 112.472656 418.972656 " fill-opacity="1" fill-rule="evenodd"/><path fill="#ffffff" d="M 303.453125 129.511719 L 365.417969 278.503906 C 367.730469 272.84375 369.617188 266.632812 371.050781 259.828125 L 311.363281 126.113281 C 308.707031 127.207031 306.074219 128.34375 303.453125 129.511719 Z M 303.453125 129.511719 " fill-opacity="1" fill-rule="evenodd"/><path fill="#ffffff" d="M 303.386719 700.5625 C 322.320312 708.460938 341.242188 716.359375 362.492188 720.933594 C 383.738281 725.507812 407.304688 726.761719 431.683594 726.511719 C 456.066406 726.261719 481.261719 724.507812 500.128906 720.933594 C 518.992188 717.359375 531.527344 711.96875 544.0625 706.578125 C 505.832031 640.261719 467.605469 573.953125 429.375 507.636719 C 418.804688 507.855469 408.230469 508.070312 397.660156 508.292969 C 392.699219 513.175781 387.738281 518.066406 382.015625 523.609375 C 376.292969 529.148438 369.800781 535.351562 363.535156 539.507812 C 357.261719 543.664062 351.210938 545.78125 346.03125 547.128906 C 340.851562 548.476562 336.550781 549.0625 332.246094 549.644531 C 325.578125 573.597656 318.910156 597.550781 313.996094 617.503906 C 309.078125 637.453125 305.914062 653.40625 304.4375 666.582031 C 302.964844 679.753906 303.179688 690.160156 303.386719 700.5625 Z M 303.386719 700.5625 " fill-opacity="1" fill-rule="evenodd"/><path fill="#ffffff" d="M 509.320312 533.847656 C 525.882812 559.726562 558.351562 609.808594 574.921875 634.851562 C 591.488281 659.890625 592.152344 659.890625 593.777344 658.746094 C 595.402344 657.601562 597.980469 655.304688 601.464844 650.960938 C 604.953125 646.617188 609.34375 640.21875 613.535156 628.160156 C 617.726562 616.101562 621.714844 598.382812 623.398438 581.4375 C 625.089844 564.492188 624.476562 548.320312 622.824219 530.683594 C 621.171875 513.039062 618.476562 493.929688 615.535156 467.441406 C 612.59375 440.953125 609.402344 407.082031 607.152344 389.648438 C 604.910156 372.210938 603.601562 371.207031 595.578125 366.683594 C 587.554688 362.160156 572.816406 354.117188 565.15625 350.574219 C 557.503906 347.03125 556.925781 347.992188 557.019531 371.828125 C 557.117188 395.667969 557.882812 442.382812 557.597656 465.839844 C 557.3125 489.289062 555.96875 489.480469 550.320312 490.34375 C 544.671875 491.203125 534.722656 492.738281 525.339844 494.078125 C 515.957031 495.417969 507.152344 496.566406 501.601562 498.292969 C 496.050781 500.011719 493.757812 502.308594 492.929688 504.296875 C 492.109375 506.285156 492.761719 507.964844 509.320312 533.847656 Z M 509.320312 533.847656 " fill-opacity="1" fill-rule="evenodd"/><path fill="#ffffff" d="M 714.332031 525.308594 C 706.417969 503.78125 698.511719 482.25 691.0625 464.679688 C 683.617188 447.105469 676.632812 433.492188 668.3125 422.265625 C 659.996094 411.03125 650.339844 402.1875 640.683594 393.34375 C 640.332031 402.886719 639.988281 412.429688 639.632812 421.972656 C 645.800781 428.488281 651.96875 435.003906 659.644531 444.835938 C 667.324219 454.671875 676.519531 467.824219 684.605469 479.867188 C 692.691406 491.910156 699.671875 502.847656 704.441406 510.238281 C 709.214844 517.628906 711.773438 521.46875 714.332031 525.308594 Z M 714.332031 525.308594 " fill-opacity="1" fill-rule="evenodd"/><path fill="#131610" d="M 105.882812 539.808594 C 101.875 534.621094 100.941406 527.355469 104.429688 521.101562 C 106.976562 516.542969 110.660156 514.410156 114.898438 511.863281 C 119.699219 508.984375 124.523438 506.265625 129.769531 504.273438 C 135.875 501.960938 142.214844 500.777344 148.710938 500.339844 C 155.902344 499.851562 162.769531 500.339844 169.597656 502.882812 C 176.230469 505.347656 182.1875 509.535156 187.550781 514.089844 C 191.511719 517.457031 195.898438 521.558594 199.007812 525.738281 C 199.652344 526.601562 200.214844 527.480469 200.703125 528.367188 C 214.253906 520.40625 227.8125 512.425781 241.171875 504.191406 C 249.296875 499.1875 257.679688 493.96875 265.074219 487.902344 C 268.75 484.886719 272.21875 481.707031 275.574219 478.335938 C 277.523438 476.371094 279.414062 474.367188 281.289062 472.339844 C 286.15625 461.550781 290.78125 450.886719 294.652344 439.640625 C 299.648438 425.105469 303.621094 410.191406 308.128906 395.496094 C 311.257812 385.300781 314.765625 374.316406 319.222656 364.621094 C 321.945312 358.691406 324.730469 354.203125 329.613281 349.84375 C 334.003906 345.921875 338.445312 343.292969 343.960938 341.207031 C 350.800781 338.617188 358.613281 336.921875 365.8125 335.667969 C 373.023438 334.410156 380.636719 333.4375 387.953125 333.285156 C 394.183594 333.15625 400.371094 333.699219 406.222656 335.980469 C 412.425781 338.402344 417.816406 342.625 420.882812 348.632812 C 422.546875 351.894531 423.421875 355.523438 423.46875 359.160156 C 423.53125 359.203125 423.597656 359.242188 423.664062 359.285156 C 427.886719 362.054688 431.253906 366.191406 433.550781 370.65625 C 435.628906 374.6875 437.070312 379.441406 437.121094 384.015625 C 441.261719 386.855469 444.644531 390.761719 446.859375 395.265625 C 448.050781 397.691406 448.921875 400.332031 449.453125 403.023438 C 452.105469 404.808594 454.378906 407.164062 456.273438 409.992188 C 459.265625 414.449219 461.390625 419.988281 462.253906 425.273438 C 463.128906 430.613281 462.839844 436.410156 461.386719 441.628906 C 459.96875 446.726562 457.328125 451.472656 453.210938 454.882812 C 447.6875 459.460938 440.152344 460.929688 433.476562 457.996094 C 431.960938 457.328125 430.652344 456.53125 429.503906 455.609375 C 425.675781 457.335938 421.628906 459.160156 418.082031 461.273438 C 417.917969 461.371094 417.730469 461.480469 417.535156 461.601562 C 417.214844 463.90625 417.054688 466.433594 416.660156 468.699219 C 415.15625 477.34375 412.289062 486.148438 408.199219 493.910156 C 403.375 503.070312 396.449219 511.570312 388.5625 518.269531 C 380.183594 525.382812 370.722656 530.167969 360.835938 534.800781 C 349.652344 540.039062 338.285156 544.984375 326.9375 549.90625 C 324.375 560.011719 321.339844 569.367188 317.285156 579.5 C 309.105469 599.949219 299.246094 620.664062 289.1875 640.257812 C 280.835938 656.519531 272.128906 671.632812 260.753906 685.96875 C 249.929688 699.613281 236.984375 712.859375 223.265625 723.59375 C 210.953125 733.230469 197.152344 741.417969 182.570312 747.101562 C 171.125 751.558594 159.953125 753.992188 147.964844 756.320312 C 141.941406 757.492188 136.097656 755.28125 132.414062 750.558594 C 126.648438 753.828125 120.859375 757.070312 115.082031 760.316406 C 108.320312 764.113281 99.996094 762.582031 95.03125 756.621094 C 91.601562 752.507812 89.0625 748.699219 86.542969 743.941406 C 81.816406 735.007812 78.136719 725.234375 75.28125 715.558594 C 71.222656 701.796875 68.355469 687.132812 66.519531 672.886719 C 64.570312 657.714844 64.007812 642.945312 65.761719 627.707031 C 67.433594 613.191406 71.015625 598.007812 75.738281 584.207031 C 79.101562 574.375 83.277344 564.875 89.332031 556.382812 C 93.734375 550.214844 98.988281 544.703125 105.171875 540.304688 C 105.410156 540.136719 105.648438 539.972656 105.882812 539.808594 Z M 105.882812 539.808594 " fill-opacity="1" fill-rule="evenodd"/><path fill="#ffffff" d="M 182.707031 479.625 C 185.5625 467.292969 188.421875 454.960938 192.757812 443.523438 C 197.089844 432.085938 202.898438 421.542969 207.84375 413.074219 C 212.796875 404.605469 216.890625 398.21875 222.746094 389.039062 C 228.609375 379.863281 236.234375 367.898438 243.863281 355.9375 C 235.019531 362.4375 226.179688 368.941406 218.03125 377.003906 C 209.886719 385.066406 202.433594 394.6875 196.144531 403.652344 C 189.855469 412.613281 184.726562 420.921875 179.457031 431.148438 C 174.183594 441.371094 168.765625 453.523438 165.304688 462.011719 C 161.835938 470.496094 160.332031 475.3125 158.824219 480.132812 C 166.789062 479.964844 174.746094 479.792969 182.710938 479.625 Z M 182.707031 479.625 " fill-opacity="1" fill-rule="evenodd"/><path fill="#ffffff" d="M 280.738281 470.25 C 278.089844 448.550781 275.441406 426.851562 271.785156 407.15625 C 268.121094 387.457031 263.449219 369.75 258.773438 352.050781 C 260.300781 350.199219 261.828125 348.34375 268.3125 345.511719 C 274.796875 342.679688 286.238281 338.867188 292.941406 337.339844 C 299.644531 335.8125 301.601562 336.578125 304.871094 345.296875 C 308.144531 354.015625 312.71875 370.691406 313.808594 383.171875 C 314.894531 395.652344 312.5 403.933594 308.46875 414.503906 C 304.4375 425.078125 298.769531 437.941406 295.117188 447.53125 C 291.464844 457.125 289.832031 463.441406 288.199219 469.765625 C 285.710938 469.925781 283.222656 470.089844 280.738281 470.25 Z M 280.738281 470.25 " fill-opacity="1" fill-rule="evenodd"/><path fill="#131610" d="M 280.179688 274.292969 C 278.699219 273.683594 277.472656 272.671875 276.523438 271.261719 L 253.585938 237.285156 C 251.089844 233.589844 251.9375 228.59375 255.507812 225.929688 L 275.488281 211.011719 C 277.34375 209.628906 279.4375 209.105469 281.722656 209.445312 C 284.007812 209.789062 285.855469 210.910156 287.21875 212.773438 L 311.480469 245.988281 C 312.589844 247.496094 313.109375 249.265625 313.085938 251.015625 C 314.71875 251.605469 316.054688 252.664062 317.070312 254.179688 C 336.222656 282.6875 355.371094 311.199219 374.519531 339.707031 C 376.347656 342.429688 376.449219 345.746094 374.796875 348.578125 C 373.136719 351.410156 370.195312 352.941406 366.925781 352.679688 C 359.042969 352.046875 351.695312 353.375 345.066406 357.867188 C 343.15625 359.164062 341.046875 359.589844 338.792969 359.148438 C 336.527344 358.707031 334.738281 357.519531 333.457031 355.605469 L 281.558594 278.179688 C 280.753906 276.980469 280.300781 275.644531 280.179688 274.292969 Z M 553.667969 701.128906 L 405.207031 470.785156 C 403.816406 468.625 403.492188 466.203125 404.261719 463.753906 C 405.03125 461.304688 406.691406 459.507812 409.066406 458.539062 L 436.796875 447.222656 C 440.46875 445.722656 444.574219 446.945312 446.820312 450.214844 L 597.917969 669.878906 C 600.480469 673.605469 599.601562 678.710938 595.9375 681.363281 L 565.574219 703.367188 C 563.648438 704.761719 561.472656 705.25 559.140625 704.808594 C 556.800781 704.371094 554.953125 703.128906 553.667969 701.128906 Z M 553.667969 701.128906 " fill-opacity="1" fill-rule="evenodd"/><path fill="#ffffff" d="M 147.984375 454.554688 C 148.667969 451.890625 149.382812 449.265625 150.132812 446.675781 L 123.785156 442.578125 C 123.964844 444.9375 124.167969 447.292969 124.398438 449.640625 Z M 147.984375 454.554688 " fill-opacity="1" fill-rule="evenodd"/><path fill="#ffffff" d="M 118.261719 396.273438 L 161.347656 415.753906 C 162.554688 413.203125 163.816406 410.699219 165.128906 408.25 L 118.820312 388.679688 C 118.605469 391.203125 118.417969 393.734375 118.261719 396.273438 Z M 118.261719 396.273438 " fill-opacity="1" fill-rule="evenodd"/><path fill="#ffffff" d="M 124.375 340.765625 L 185.863281 377.953125 C 188.03125 375.488281 190.28125 373.101562 192.605469 370.800781 L 126.410156 332.839844 C 125.695312 335.46875 125.019531 338.109375 124.375 340.765625 Z M 124.375 340.765625 " fill-opacity="1" fill-rule="evenodd"/><path fill="#ffffff" d="M 143.714844 285.421875 L 219.804688 349.765625 C 222.007812 348.4375 224.257812 347.160156 226.558594 345.929688 L 146.859375 278.660156 C 145.785156 280.898438 144.738281 283.152344 143.714844 285.421875 Z M 143.714844 285.421875 " fill-opacity="1" fill-rule="evenodd"/><path fill="#ffffff" d="M 169.949219 242.476562 L 261.496094 331.746094 C 265.476562 330.644531 269.558594 329.652344 273.75 328.769531 L 175.996094 233.707031 C 173.929688 236.59375 171.914062 239.515625 169.949219 242.476562 Z M 169.949219 242.476562 " fill-opacity="1" fill-rule="evenodd"/><path fill="#ffffff" d="M 221.78125 211.476562 L 301.589844 324.503906 C 302.910156 324.386719 304.234375 324.277344 305.574219 324.175781 C 307.398438 323.730469 309.195312 323.25 310.960938 322.730469 L 229.539062 210.046875 Z M 221.78125 211.476562 " fill-opacity="1" fill-rule="evenodd"/><path fill="#ffffff" d="M 252.480469 158.316406 L 346.019531 303.390625 C 347.519531 301.964844 348.960938 300.46875 350.347656 298.898438 L 258.429688 154.285156 C 256.429688 155.605469 254.445312 156.949219 252.480469 158.316406 Z M 252.480469 158.316406 " fill-opacity="1" fill-rule="evenodd"/><path fill="#ffffff" d="M 659.746094 207.035156 L 583.210938 346.808594 C 587.511719 349.910156 591.964844 352.859375 596.550781 355.5625 L 667.566406 215.722656 C 665.011719 212.777344 662.402344 209.882812 659.746094 207.039062 Z M 659.746094 207.035156 " fill-opacity="1" fill-rule="evenodd"/><path fill="#ffffff" d="M 690.34375 245.402344 L 608.675781 362.15625 C 613.460938 364.371094 618.378906 366.265625 623.417969 367.738281 L 698.386719 257.9375 C 695.800781 253.691406 693.121094 249.511719 690.34375 245.402344 Z M 690.34375 245.402344 " fill-opacity="1" fill-rule="evenodd"/><path fill="#ffffff" d="M 714.152344 287.3125 L 640.636719 370.535156 C 642.945312 370.726562 645.273438 370.8125 647.621094 370.792969 C 650.148438 371.621094 652.710938 372.878906 655.308594 374.542969 L 719.59375 299.601562 C 717.867188 295.460938 716.050781 291.363281 714.152344 287.3125 Z M 714.152344 287.3125 " fill-opacity="1" fill-rule="evenodd"/><path fill="#ffffff" d="M 729.84375 328.03125 L 666.65625 385.097656 C 669.792969 388.363281 672.945312 392.140625 676.105469 396.386719 L 733.832031 342.273438 C 732.617188 337.484375 731.285156 332.734375 729.84375 328.03125 Z M 729.84375 328.03125 " fill-opacity="1" fill-rule="evenodd"/><path fill="#ffffff" d="M 739.953125 372.675781 L 685.820312 410.617188 C 688.195312 414.484375 690.570312 418.589844 692.929688 422.921875 L 741.699219 386.457031 C 741.222656 381.832031 740.636719 377.238281 739.953125 372.675781 Z M 739.953125 372.675781 " fill-opacity="1" fill-rule="evenodd"/><path fill="#ffffff" d="M 743.355469 414.730469 L 700.066406 436.992188 C 702.121094 441.195312 704.160156 445.558594 706.175781 450.066406 L 743.191406 430.066406 C 743.320312 426.386719 743.386719 422.6875 743.386719 418.980469 C 743.386719 417.558594 743.375 416.144531 743.355469 414.730469 Z M 743.355469 414.730469 " fill-opacity="1" fill-rule="evenodd"/><path fill="#ffffff" d="M 747.523438 452.089844 L 710.851562 466.246094 C 712.140625 469.394531 713.414062 472.597656 714.679688 475.855469 L 745.65625 466.148438 C 746.382812 461.496094 747.007812 456.808594 747.523438 452.089844 Z M 747.523438 452.089844 " fill-opacity="1" fill-rule="evenodd"/><path fill="#ffffff" d="M 621.503906 172.398438 L 558.503906 326.902344 C 563.304688 331.199219 568.371094 335.582031 573.695312 339.832031 L 629.890625 179.046875 C 627.132812 176.78125 624.335938 174.566406 621.503906 172.398438 Z M 621.503906 172.398438 " fill-opacity="1" fill-rule="evenodd"/><path stroke-linecap="butt" transform="matrix(6.321899, 0, 0, 6.322922, -1479.978666, -569.935559)" fill="none" stroke-linejoin="miter" d="M 350.148523 174.153999 C 361.335455 130.712724 329.045662 106.801706 304.220621 106.692975 C 279.816365 103.082599 244.736791 130.087519 254.114535 168.136705 " stroke="#ffffff" stroke-width="1.417" stroke-opacity="1" stroke-miterlimit="4"/><path fill="#ffffff" d="M 504.410156 407.507812 C 519 413.847656 533.582031 420.1875 548.167969 426.523438 C 545.304688 397.871094 542.4375 369.214844 539.574219 340.558594 C 537.75 340.730469 535.929688 340.910156 534.105469 341.082031 C 533.84375 362.703125 533.582031 384.324219 533.320312 405.945312 C 523.511719 405.078125 513.699219 404.207031 503.890625 403.339844 C 504.066406 404.730469 504.238281 406.117188 504.410156 407.507812 Z M 504.410156 407.507812 " fill-opacity="1" fill-rule="evenodd"/><path fill="#ffffff" d="M 573.359375 136.457031 L 532.820312 303.035156 C 537.5625 307.054688 542.832031 311.960938 548.582031 317.277344 L 585.03125 142.628906 C 581.1875 140.492188 577.296875 138.433594 573.359375 136.457031 Z M 573.359375 136.457031 " fill-opacity="1" fill-rule="evenodd"/><path fill="#131610" d="M 464.1875 57.34375 C 466.988281 56.480469 469.828125 55.699219 472.738281 54.996094 C 482.25 52.710938 492.15625 51.089844 501.851562 49.773438 C 508.828125 48.832031 516.027344 47.984375 523.074219 47.761719 C 527.191406 47.628906 530.953125 47.824219 535.027344 48.285156 C 541.414062 49.007812 546.476562 53.15625 548.441406 59.277344 C 550.40625 65.394531 548.710938 71.710938 543.945312 76.023438 C 541.304688 78.410156 538.75 80.394531 535.753906 82.34375 C 530.644531 85.671875 525.109375 88.65625 519.71875 91.5 C 518.074219 92.367188 516.429688 93.21875 514.773438 94.066406 C 518.144531 94.707031 521.328125 96.246094 524.234375 98.8125 C 527.164062 101.394531 528.917969 104.230469 531.148438 107.304688 C 532.742188 109.492188 534.21875 111.152344 535.507812 113.628906 C 536.871094 116.25 537.625 118.832031 538.402344 121.632812 C 538.484375 121.929688 538.570312 122.253906 538.660156 122.554688 C 540.335938 125.269531 541.496094 127.371094 542.34375 130.640625 C 543.273438 134.242188 543.371094 137.804688 543.546875 141.484375 C 543.597656 142.558594 543.644531 143.953125 543.902344 145.003906 C 544.011719 145.460938 544.207031 145.925781 544.445312 146.335938 C 545.644531 148.410156 546.953125 150.191406 548.074219 152.402344 C 549.808594 155.828125 551.109375 159.558594 552.246094 163.226562 C 553.800781 168.25 554.925781 173.164062 555.347656 178.421875 C 555.75 183.519531 555.441406 188.484375 555.53125 193.5625 C 555.542969 194.703125 555.585938 196.386719 555.792969 197.6875 C 556.960938 199.6875 557.785156 201.507812 558.351562 203.941406 C 559.3125 208.054688 559.140625 212.90625 559.273438 217.144531 C 559.453125 222.664062 559.8125 228.183594 559.957031 233.703125 C 560.101562 239.371094 559.804688 243.980469 556.734375 248.96875 C 554.101562 253.25 550.058594 256.894531 545.347656 258.714844 C 539.566406 260.953125 533.386719 260.285156 527.921875 257.5 C 526.394531 256.71875 524.925781 255.582031 523.539062 254.902344 C 523.058594 254.746094 522.039062 254.6875 521.5 254.65625 C 519.085938 254.519531 516.109375 254.644531 513.722656 255.074219 C 511.257812 255.519531 508.597656 256.753906 506.300781 257.707031 C 501.007812 259.898438 495.710938 262.09375 490.414062 264.277344 C 492.1875 265.085938 493.8125 266.242188 495.277344 267.75 C 498.398438 270.964844 499.921875 274.867188 499.789062 279.347656 C 499.640625 284.445312 499.492188 289.542969 499.347656 294.640625 C 503.566406 300.335938 503.15625 308.199219 503.21875 315.5625 C 503.367188 332.808594 503.25 350.085938 503.199219 367.332031 C 503.199219 369.167969 502.933594 370.734375 502.339844 372.472656 C 500.492188 377.855469 498.628906 383.207031 496.5 388.488281 C 494.03125 394.625 491.191406 400.917969 487.65625 406.5 C 484.511719 411.453125 480.96875 415.394531 476.917969 419.574219 C 473.796875 422.800781 469.925781 424.4375 465.4375 424.4375 C 458.511719 424.4375 451.578125 424.4375 444.644531 424.4375 C 435.84375 424.4375 428.667969 417.261719 428.667969 408.457031 C 428.667969 407.625 428.699219 406.621094 428.574219 405.796875 C 428.484375 405.226562 428.289062 404.628906 428.054688 404.105469 C 427.308594 402.425781 425.8125 400.398438 424.777344 398.894531 C 420.628906 392.84375 416.582031 386.925781 412.789062 380.625 C 409.238281 374.722656 405.875 368.671875 402.578125 362.59375 C 397.03125 362.832031 391.664062 361.648438 386.78125 358.765625 C 380.355469 354.964844 376.082031 348.789062 372.203125 342.589844 C 366.546875 333.542969 361.367188 323.96875 356.175781 314.644531 C 353.574219 309.972656 353.410156 304.804688 355.710938 299.980469 C 358.339844 294.480469 360.917969 289.046875 362.828125 283.242188 C 364.917969 276.882812 366.375 270.125 367.707031 263.566406 C 368.671875 258.800781 369.589844 254.003906 370.382812 249.203125 C 370.628906 247.746094 370.867188 246.394531 371.171875 245.117188 C 366.753906 241.703125 362.894531 237.777344 359.476562 233.164062 C 354.214844 226.066406 349.355469 216.542969 346.621094 208.15625 C 345.4375 204.527344 344.609375 200.828125 344.386719 197.152344 C 340.175781 196.023438 336.644531 193.203125 334.507812 189.101562 C 332.058594 184.40625 330.433594 180.253906 329.09375 175.097656 C 327.152344 167.582031 325.855469 159.457031 324.875 151.757812 C 323.847656 143.742188 323.214844 135.59375 323.765625 127.519531 C 324.300781 119.71875 325.960938 112.171875 328.628906 104.832031 C 331.410156 97.199219 335.136719 90.195312 340.046875 83.710938 C 345.28125 76.800781 351.722656 70.542969 358.472656 65.121094 C 364.417969 60.34375 370.988281 55.847656 377.621094 52.074219 C 382.265625 49.429688 386.539062 47.542969 391.613281 45.957031 C 396.882812 44.300781 402.214844 43.035156 407.738281 42.609375 C 414.101562 42.125 420.375 42.808594 426.648438 43.828125 C 432.6875 44.8125 438.742188 46.054688 444.707031 47.425781 C 450.308594 48.71875 456.132812 50.121094 460.714844 53.800781 C 462.074219 54.898438 463.230469 56.085938 464.1875 57.34375 Z M 464.1875 57.34375 " fill-opacity="1" fill-rule="evenodd"/><path fill="#ffffff" d="M 370.132812 306.867188 C 375.886719 317.207031 381.644531 327.546875 385.75 334.113281 C 389.859375 340.675781 392.320312 343.472656 394.914062 345.007812 C 397.511719 346.542969 400.253906 346.824219 402.960938 346.546875 C 405.667969 346.265625 408.355469 345.429688 411.035156 344.589844 C 416.390625 354.554688 421.75 364.523438 426.480469 372.386719 C 431.210938 380.246094 435.3125 386.003906 437.957031 389.851562 C 440.597656 393.695312 441.773438 395.628906 442.648438 397.585938 C 443.515625 399.542969 444.082031 401.523438 444.363281 403.335938 C 444.648438 405.152344 444.648438 406.804688 444.648438 408.457031 C 451.578125 408.457031 458.511719 408.457031 465.441406 408.457031 C 468.410156 405.390625 471.382812 402.324219 474.164062 397.941406 C 476.945312 393.554688 479.539062 387.851562 481.683594 382.523438 C 483.828125 377.195312 485.523438 372.242188 487.222656 367.289062 C 487.273438 346.796875 487.332031 326.304688 487.242188 315.699219 C 487.152344 305.097656 486.914062 304.382812 486.199219 304.027344 C 485.484375 303.667969 484.296875 303.667969 483.101562 303.667969 C 483.34375 295.410156 483.582031 287.148438 483.820312 278.886719 C 476.589844 278.886719 469.363281 278.886719 461.820312 278.171875 C 454.273438 277.457031 446.414062 276.027344 440.417969 273.367188 C 434.421875 270.707031 430.292969 266.8125 427.035156 262.527344 C 423.78125 258.234375 421.398438 253.550781 419.019531 248.867188 C 425.210938 252.4375 431.402344 256.015625 437.519531 258.078125 C 443.636719 260.144531 449.667969 260.699219 457.230469 259.113281 C 464.792969 257.527344 473.878906 253.804688 481.601562 250.625 C 489.328125 247.441406 495.691406 244.804688 500.191406 242.9375 C 504.691406 241.074219 507.324219 239.984375 510.890625 239.34375 C 514.460938 238.699219 518.957031 238.507812 522.398438 238.699219 C 525.835938 238.894531 528.21875 239.46875 530.175781 240.371094 C 532.136719 241.269531 533.675781 242.492188 535.191406 243.265625 C 536.699219 244.035156 538.175781 244.355469 539.589844 243.808594 C 541.007812 243.261719 542.355469 241.847656 543.125 240.597656 C 543.894531 239.34375 544.089844 238.25 543.980469 234.117188 C 543.878906 229.984375 543.472656 222.808594 543.304688 217.65625 C 543.144531 212.503906 543.214844 209.375 542.796875 207.582031 C 542.375 205.785156 541.460938 205.328125 540.773438 203.421875 C 540.085938 201.511719 539.632812 198.152344 539.554688 193.839844 C 539.480469 189.527344 539.78125 184.257812 539.417969 179.699219 C 539.050781 175.140625 538.015625 171.296875 536.980469 167.957031 C 535.949219 164.613281 534.917969 161.785156 533.824219 159.628906 C 532.730469 157.472656 531.570312 155.988281 530.605469 154.316406 C 529.640625 152.640625 528.867188 150.777344 528.386719 148.8125 C 527.90625 146.847656 527.710938 144.789062 527.585938 142.253906 C 527.464844 139.722656 527.410156 136.71875 526.875 134.644531 C 526.335938 132.570312 525.320312 131.433594 524.597656 130.175781 C 523.878906 128.917969 523.464844 127.539062 523.011719 125.921875 C 522.5625 124.304688 522.085938 122.445312 521.335938 121.007812 C 520.589844 119.570312 519.566406 118.550781 518.21875 116.695312 C 516.875 114.835938 515.195312 112.144531 513.667969 110.796875 C 512.140625 109.445312 510.761719 109.445312 508.453125 110.105469 C 506.148438 110.765625 502.914062 112.082031 499.046875 113.039062 C 495.1875 114 490.691406 114.597656 484.523438 115.4375 C 478.351562 116.277344 470.503906 117.355469 462.953125 117.957031 C 455.40625 118.554688 448.160156 118.671875 442.019531 118.792969 C 435.875 118.914062 430.847656 119.03125 426.320312 119.992188 C 421.796875 120.949219 417.785156 122.746094 413.386719 125.113281 C 408.980469 127.476562 404.1875 130.414062 400.835938 133.082031 C 397.476562 135.746094 395.558594 138.144531 394.660156 140.390625 C 393.761719 142.636719 393.882812 144.734375 394.929688 146.804688 C 395.980469 148.867188 397.953125 150.90625 399.546875 152.074219 C 401.132812 153.246094 402.332031 153.542969 402.839844 159.308594 C 403.351562 165.074219 403.167969 176.300781 402.441406 182.210938 C 401.710938 188.117188 400.433594 188.707031 398.46875 189.101562 C 396.503906 189.492188 393.855469 189.691406 391.652344 189.621094 C 389.449219 189.542969 387.699219 189.207031 385.773438 188.597656 C 383.84375 187.988281 381.742188 187.105469 379.136719 186.160156 C 376.527344 185.210938 373.414062 184.191406 370.128906 184.636719 C 366.839844 185.074219 363.386719 186.96875 361.628906 189.949219 C 359.863281 192.929688 359.796875 196.996094 361.820312 203.207031 C 363.839844 209.414062 367.953125 217.765625 372.3125 223.652344 C 376.675781 229.535156 381.292969 232.953125 384.882812 235.21875 C 388.46875 237.480469 391.027344 238.589844 393.546875 239.359375 C 396.070312 240.128906 398.546875 240.554688 400.726562 240.300781 C 402.902344 240.042969 404.78125 239.105469 405.890625 238.933594 C 407 238.761719 407.34375 239.359375 406.789062 240.515625 C 406.234375 241.667969 404.78125 243.375 403.125 244.457031 C 401.464844 245.539062 399.601562 245.992188 397.523438 246.050781 C 395.441406 246.105469 393.148438 245.765625 391.3125 245.910156 C 389.480469 246.054688 388.113281 246.691406 387.40625 247.375 C 386.695312 248.058594 386.652344 248.792969 386.152344 251.808594 C 385.652344 254.824219 384.710938 260.121094 383.367188 266.75 C 382.019531 273.375 380.277344 281.328125 378.007812 288.234375 C 375.734375 295.144531 372.933594 301.003906 370.132812 306.867188 Z M 370.132812 306.867188 " fill-opacity="1" fill-rule="evenodd"/><path fill="#ffffff" d="M 348.675781 181.71875 C 351.46875 175.230469 354.257812 168.746094 357.703125 161.195312 C 361.152344 153.644531 365.253906 145.023438 371.078125 136.242188 C 376.90625 127.460938 384.457031 118.511719 391.761719 110.921875 C 399.066406 103.328125 406.125 97.089844 413.058594 91.464844 C 419.996094 85.84375 426.804688 80.835938 433.328125 77.511719 C 439.855469 74.1875 446.09375 72.542969 449.203125 70.882812 C 452.3125 69.21875 452.292969 67.535156 450.703125 66.257812 C 449.117188 64.984375 445.960938 64.113281 441.121094 63 C 436.285156 61.886719 429.765625 60.527344 424.085938 59.605469 C 418.414062 58.679688 413.582031 58.191406 408.960938 58.542969 C 404.34375 58.898438 399.945312 60.09375 396.386719 61.207031 C 392.828125 62.320312 390.113281 63.355469 385.523438 65.964844 C 380.9375 68.574219 374.476562 72.761719 368.484375 77.578125 C 362.492188 82.394531 356.964844 87.835938 352.785156 93.359375 C 348.601562 98.882812 345.761719 104.488281 343.648438 110.292969 C 341.535156 116.101562 340.15625 122.113281 339.710938 128.613281 C 339.261719 135.109375 339.75 142.09375 340.726562 149.734375 C 341.699219 157.367188 343.160156 165.652344 344.570312 171.09375 C 345.972656 176.53125 347.324219 179.125 348.675781 181.71875 Z M 348.675781 181.71875 " fill-opacity="1" fill-rule="evenodd"/><path fill="#ffffff" d="M 409.398438 104.355469 C 407.839844 106.027344 406.410156 107.683594 405.59375 109.5625 C 404.777344 111.433594 404.574219 113.523438 405.160156 115.023438 C 405.746094 116.527344 407.121094 117.445312 411.144531 117.140625 C 415.164062 116.832031 421.835938 115.304688 429.167969 112.960938 C 436.5 110.617188 444.492188 107.460938 454.523438 103.386719 C 464.554688 99.316406 476.621094 94.320312 486.878906 89.714844 C 497.140625 85.105469 505.59375 80.878906 512.269531 77.359375 C 518.945312 73.839844 523.84375 71.027344 527.042969 68.949219 C 530.238281 66.867188 531.734375 65.515625 533.230469 64.164062 C 530.671875 63.875 528.121094 63.589844 523.582031 63.734375 C 519.050781 63.875 512.535156 64.457031 503.996094 65.613281 C 495.460938 66.769531 484.894531 68.507812 476.476562 70.535156 C 468.058594 72.558594 461.789062 74.878906 455.359375 77.589844 C 448.925781 80.300781 442.332031 83.40625 435.46875 87.097656 C 428.605469 90.78125 421.472656 95.046875 417.058594 98.023438 C 412.640625 101 410.957031 102.683594 409.398438 104.355469 Z M 409.398438 104.355469 " fill-opacity="1" fill-rule="evenodd"/><path fill="#131610" d="M 490.09375 223.835938 C 491.566406 224.449219 494.355469 225.195312 497.164062 225.417969 C 499.976562 225.640625 502.804688 225.34375 504.773438 224.820312 C 506.746094 224.300781 507.867188 223.558594 508.496094 222.886719 C 509.128906 222.21875 509.277344 221.621094 509.503906 221.269531 C 509.722656 220.914062 510.023438 220.804688 510.804688 220.933594 C 511.585938 221.0625 512.851562 221.4375 515.304688 221.511719 C 517.761719 221.582031 521.414062 221.359375 524.125 220.785156 C 526.84375 220.207031 528.628906 219.277344 527.566406 218.234375 C 526.507812 217.191406 522.597656 216.039062 519.507812 215.722656 C 516.421875 215.40625 514.152344 215.925781 512.332031 216.375 C 510.503906 216.820312 509.128906 217.191406 507.472656 217.097656 C 505.816406 217.003906 503.882812 216.449219 501.816406 216.09375 C 499.753906 215.742188 497.558594 215.589844 495.847656 215.964844 C 494.132812 216.335938 492.90625 217.230469 491.734375 218.363281 C 490.5625 219.5 489.445312 220.878906 488.960938 221.808594 C 488.476562 222.738281 488.625 223.222656 490.09375 223.835938 Z M 490.09375 223.835938 " fill-opacity="1" fill-rule="evenodd"/><path fill="#131610" d="M 485.867188 211.371094 C 487.214844 211.140625 489.359375 209.5 491.527344 208.238281 C 493.695312 206.972656 495.882812 206.089844 499.160156 205.566406 C 502.441406 205.035156 506.820312 204.871094 510.523438 205.019531 C 514.226562 205.164062 517.253906 205.628906 519.839844 206.089844 C 522.429688 206.554688 524.574219 207.015625 526.171875 206.910156 C 527.769531 206.804688 528.824219 206.132812 529.140625 205.273438 C 529.453125 204.40625 529.035156 203.355469 527.332031 201.964844 C 525.625 200.578125 522.640625 198.851562 519.738281 197.90625 C 516.832031 196.957031 514.011719 196.789062 511.195312 196.558594 C 508.375 196.328125 505.558594 196.035156 502.738281 196.390625 C 499.921875 196.75 497.097656 197.757812 494.40625 199.0625 C 491.71875 200.367188 489.148438 201.964844 487.210938 203.378906 C 485.28125 204.785156 483.972656 206.003906 483.449219 206.953125 C 482.921875 207.898438 483.175781 208.574219 483.574219 209.5 C 483.972656 210.425781 484.523438 211.601562 485.867188 211.371094 Z M 485.867188 211.371094 " fill-opacity="1" fill-rule="evenodd"/><path fill="#131610" d="M 486.457031 185.101562 C 488.074219 183.136719 492.445312 179.023438 495.230469 176.265625 C 498.015625 173.511719 499.21875 172.117188 500.902344 171.257812 C 502.578125 170.402344 504.730469 170.089844 507.136719 169.898438 C 509.546875 169.710938 512.203125 169.644531 513.789062 169.394531 C 515.371094 169.136719 515.878906 168.695312 516.195312 168.949219 C 516.515625 169.203125 516.636719 170.152344 516.828125 171.863281 C 517.019531 173.574219 517.273438 176.042969 517.019531 177.945312 C 516.769531 179.84375 516.007812 181.171875 514.742188 182.09375 C 513.472656 183.011719 511.695312 183.519531 509.609375 183.042969 C 507.519531 182.566406 505.113281 181.109375 503.433594 180.511719 C 501.753906 179.910156 500.804688 180.160156 499.347656 180.859375 C 497.890625 181.554688 495.925781 182.695312 494.277344 183.390625 C 492.632812 184.089844 491.304688 184.34375 490.160156 184.820312 C 489.023438 185.292969 488.074219 185.988281 487.027344 186.433594 C 485.980469 186.875 484.839844 187.066406 486.457031 185.101562 Z M 486.457031 185.101562 " fill-opacity="1" fill-rule="evenodd"/><path fill="#131610" d="M 433.511719 149.160156 C 435.277344 145.863281 437.035156 142.574219 439.105469 139.90625 C 441.175781 137.234375 443.558594 135.195312 446 134.058594 C 448.441406 132.921875 450.941406 132.695312 453.324219 132.78125 C 455.707031 132.867188 457.980469 133.261719 460.019531 133.347656 C 462.066406 133.433594 463.882812 133.203125 465.585938 132.609375 C 467.289062 132.011719 468.878906 131.046875 470.296875 130.847656 C 471.714844 130.648438 472.964844 131.21875 474.042969 132.296875 C 475.125 133.375 476.027344 134.964844 476.882812 136.300781 C 477.734375 137.632812 478.53125 138.710938 479.324219 139.789062 C 478.074219 140.019531 476.828125 140.246094 475.628906 140.332031 C 474.441406 140.417969 473.304688 140.355469 472.195312 140.332031 C 471.089844 140.296875 470.011719 140.296875 469.332031 141.011719 C 468.652344 141.71875 468.367188 143.140625 467.261719 144.957031 C 466.15625 146.773438 464.226562 148.988281 462.4375 150.664062 C 460.648438 152.335938 459 153.472656 457.4375 154.039062 C 455.878906 154.609375 454.40625 154.609375 452.953125 154.15625 C 451.507812 153.703125 450.089844 152.789062 449.011719 151.9375 C 447.929688 151.089844 447.191406 150.292969 445.746094 149.984375 C 444.300781 149.667969 442.140625 149.839844 440.636719 149.953125 C 439.132812 150.066406 438.28125 150.125 437.199219 149.984375 C 436.125 149.84375 434.820312 149.5 433.511719 149.160156 Z M 433.511719 149.160156 " fill-opacity="1" fill-rule="evenodd"/><path fill="#131610" d="M 522.433594 142.859375 C 521.566406 141.234375 520.699219 139.609375 519.671875 138.292969 C 518.652344 136.976562 517.472656 135.964844 516.269531 135.40625 C 515.066406 134.847656 513.832031 134.734375 512.65625 134.777344 C 511.480469 134.820312 510.359375 135.015625 509.351562 135.054688 C 508.34375 135.101562 507.445312 134.984375 506.609375 134.691406 C 505.765625 134.398438 504.984375 133.921875 504.28125 133.824219 C 503.582031 133.726562 502.96875 134.003906 502.4375 134.539062 C 501.898438 135.070312 501.453125 135.855469 501.03125 136.511719 C 500.613281 137.171875 500.21875 137.703125 499.828125 138.234375 C 500.445312 138.347656 501.0625 138.460938 501.648438 138.503906 C 502.238281 138.546875 502.796875 138.515625 503.347656 138.503906 C 503.890625 138.488281 504.421875 138.488281 504.757812 138.835938 C 505.09375 139.1875 505.234375 139.890625 505.785156 140.785156 C 506.328125 141.679688 507.28125 142.773438 508.160156 143.601562 C 509.042969 144.425781 509.859375 144.988281 510.628906 145.265625 C 511.398438 145.546875 512.128906 145.546875 512.839844 145.324219 C 513.554688 145.101562 514.253906 144.648438 514.785156 144.230469 C 515.320312 143.8125 515.683594 143.417969 516.398438 143.265625 C 517.113281 143.109375 518.175781 143.195312 518.917969 143.25 C 519.660156 143.308594 520.082031 143.335938 520.613281 143.265625 C 521.144531 143.195312 521.789062 143.027344 522.433594 142.859375 Z M 522.433594 142.859375 " fill-opacity="1" fill-rule="evenodd"/><path fill="#ffffff" d="M 144.925781 740.671875 C 155.128906 738.6875 165.335938 736.703125 176.78125 732.246094 C 188.226562 727.789062 200.90625 720.851562 213.445312 711.042969 C 225.976562 701.230469 238.359375 688.542969 248.269531 676.058594 C 258.179688 663.574219 265.605469 651.285156 275.007812 632.976562 C 284.410156 614.667969 295.78125 590.335938 302.488281 573.578125 C 309.195312 556.820312 311.234375 547.636719 313.277344 538.449219 C 328.203125 531.972656 343.140625 525.488281 354.074219 520.363281 C 365 515.238281 371.941406 511.46875 378.246094 506.113281 C 384.550781 500.757812 390.234375 493.8125 394.097656 486.480469 C 397.960938 479.140625 400.011719 471.410156 400.957031 465.96875 C 401.90625 460.527344 401.746094 457.367188 402.734375 454.738281 C 403.71875 452.105469 405.847656 450.003906 409.933594 447.574219 C 414.023438 445.136719 420.070312 442.378906 424.210938 440.507812 C 428.355469 438.628906 430.585938 437.648438 432.195312 437.152344 C 433.804688 436.65625 434.792969 436.65625 435.679688 437.417969 C 436.570312 438.171875 437.355469 439.683594 437.980469 440.898438 C 438.605469 442.117188 439.0625 443.035156 439.886719 443.398438 C 440.707031 443.757812 441.890625 443.5625 443.039062 442.609375 C 444.195312 441.65625 445.3125 439.945312 446.03125 437.351562 C 446.757812 434.753906 447.082031 431.269531 446.523438 427.847656 C 445.96875 424.433594 444.523438 421.078125 443.042969 418.878906 C 441.566406 416.671875 440.050781 415.621094 438.042969 415.261719 C 436.042969 414.898438 433.546875 415.230469 429.140625 416.34375 C 424.738281 417.464844 418.425781 419.371094 413.863281 421.113281 C 409.289062 422.851562 406.460938 424.433594 404.984375 425.023438 C 403.503906 425.613281 403.371094 425.21875 403.308594 424.496094 C 403.242188 423.773438 403.242188 422.722656 403.765625 421.902344 C 404.292969 421.078125 405.347656 420.488281 408.003906 419.535156 C 410.667969 418.578125 414.945312 417.269531 418.722656 415.953125 C 422.503906 414.636719 425.789062 413.320312 428.050781 412.5 C 430.324219 411.675781 431.574219 411.347656 432.359375 411.25 C 433.148438 411.148438 433.480469 411.28125 433.742188 410.953125 C 434.007812 410.625 434.203125 409.835938 434.101562 408.292969 C 434.007812 406.746094 433.609375 404.445312 432.558594 402.308594 C 431.507812 400.171875 429.796875 398.199219 427.628906 396.851562 C 425.460938 395.503906 422.832031 394.78125 420.53125 394.714844 C 418.230469 394.648438 416.257812 395.242188 412.414062 396.851562 C 408.566406 398.460938 402.847656 401.09375 398.148438 403 C 393.449219 404.902344 389.769531 406.089844 387.851562 406.273438 C 385.9375 406.457031 385.785156 405.636719 385.722656 404.878906 C 385.660156 404.117188 385.683594 403.414062 385.925781 402.699219 C 386.164062 401.980469 386.617188 401.25 390.679688 399.421875 C 394.734375 397.59375 402.398438 394.671875 407.839844 392.597656 C 413.277344 390.527344 416.488281 389.308594 418.457031 388.203125 C 420.429688 387.09375 421.15625 386.097656 421.1875 384.371094 C 421.210938 382.644531 420.53125 380.183594 419.382812 377.957031 C 418.234375 375.726562 416.625 373.730469 414.921875 372.617188 C 413.21875 371.496094 411.425781 371.261719 408.839844 371.496094 C 406.246094 371.734375 402.855469 372.441406 398.878906 373.597656 C 394.898438 374.75 390.328125 376.351562 386.488281 377.527344 C 382.652344 378.707031 379.542969 379.460938 377.664062 379.601562 C 375.777344 379.742188 375.117188 379.273438 374.90625 378.589844 C 374.695312 377.90625 374.925781 377.007812 376.011719 376.160156 C 377.09375 375.3125 379.023438 374.511719 383.617188 372.9375 C 388.210938 371.359375 395.460938 369.015625 399.925781 367.242188 C 404.394531 365.472656 406.074219 364.28125 406.917969 362.421875 C 407.765625 360.558594 407.78125 358.023438 406.6875 355.882812 C 405.59375 353.742188 403.394531 351.988281 400.429688 350.835938 C 397.464844 349.675781 393.738281 349.109375 388.289062 349.222656 C 382.835938 349.335938 375.667969 350.128906 368.550781 351.371094 C 361.4375 352.613281 354.378906 354.308594 349.605469 356.117188 C 344.832031 357.921875 342.347656 359.84375 340.234375 361.734375 C 338.113281 363.625 336.363281 365.488281 333.707031 371.273438 C 331.046875 377.058594 327.480469 386.765625 323.371094 400.175781 C 319.25 413.582031 314.582031 430.695312 309.722656 444.824219 C 304.863281 458.957031 299.808594 470.105469 294.75 481.253906 C 292.351562 483.871094 289.945312 486.484375 286.878906 489.574219 C 283.804688 492.660156 280.070312 496.21875 275.183594 500.226562 C 270.296875 504.238281 264.261719 508.691406 249.53125 517.765625 C 234.804688 526.839844 211.382812 540.527344 191.820312 552.09375 C 172.257812 563.660156 156.550781 573.105469 143.496094 582.597656 C 130.441406 592.085938 120.035156 601.628906 109.632812 611.167969 C 110.019531 607.503906 110.402344 603.847656 113.152344 598.351562 C 115.898438 592.863281 121.003906 585.535156 125.917969 579.804688 C 130.828125 574.070312 135.546875 569.925781 140.320312 565.878906 C 145.089844 561.832031 149.90625 557.882812 152.890625 555.039062 C 155.878906 552.199219 157.035156 550.460938 156.796875 549.0625 C 156.550781 547.667969 154.914062 546.605469 149.566406 546.320312 C 144.21875 546.03125 135.164062 546.511719 128.707031 547.617188 C 122.253906 548.726562 118.402344 550.460938 114.402344 553.304688 C 110.402344 556.144531 106.261719 560.097656 102.308594 565.640625 C 98.359375 571.179688 94.601562 578.308594 90.820312 589.367188 C 87.035156 600.425781 83.222656 615.414062 81.597656 629.53125 C 79.972656 643.648438 80.535156 656.898438 82.332031 670.855469 C 84.125 684.8125 87.15625 699.476562 90.570312 711.046875 C 93.984375 722.621094 97.785156 731.101562 100.628906 736.484375 C 103.476562 741.859375 105.375 744.140625 107.273438 746.417969 C 118.539062 740.089844 129.800781 733.761719 138.664062 728.570312 C 147.519531 723.382812 153.96875 719.328125 160.808594 714.015625 C 167.636719 708.699219 174.851562 702.113281 180.996094 696.230469 C 187.128906 690.34375 192.191406 685.15625 197.253906 679.96875 C 188.902344 690.09375 180.546875 700.21875 173.144531 708.636719 C 165.742188 717.054688 159.289062 723.761719 154.742188 728.816406 C 150.199219 733.871094 147.5625 737.269531 144.929688 740.671875 Z M 144.925781 740.671875 " fill-opacity="1" fill-rule="evenodd"/><path fill="#ffffff" d="M 125.539062 530.855469 C 130.648438 531.015625 140.148438 531.453125 148.617188 532.347656 C 157.089844 533.242188 164.527344 534.601562 170.878906 535.878906 C 177.230469 537.152344 182.5 538.347656 185.160156 538.433594 C 187.816406 538.511719 187.875 537.480469 186.21875 535.253906 C 184.5625 533.027344 181.191406 529.605469 177.230469 526.238281 C 173.269531 522.871094 168.707031 519.558594 164.039062 517.820312 C 159.367188 516.082031 154.589844 515.921875 149.785156 516.246094 C 144.976562 516.570312 140.148438 517.390625 135.425781 519.179688 C 130.699219 520.96875 126.085938 523.742188 123.101562 525.53125 C 120.113281 527.324219 118.757812 528.140625 118.347656 528.875 C 117.9375 529.605469 118.484375 530.257812 119.105469 530.53125 C 119.730469 530.800781 120.4375 530.691406 125.542969 530.855469 Z M 125.539062 530.855469 " fill-opacity="1" fill-rule="evenodd"/><path fill="#ffffff" d="M 714.679688 475.855469 C 721.375 493.023438 727.753906 511.652344 733.625 531.226562 C 739.425781 508.699219 743.378906 487 745.65625 466.148438 Z M 714.679688 475.855469 " fill-opacity="1" fill-rule="evenodd"/><path fill="#131610" d="M 52.464844 94.558594 C 40.726562 97.707031 40.46875 121.265625 46.675781 141.945312 L 35.179688 146.679688 C 31.199219 148.316406 29.300781 152.875 30.9375 156.855469 L 66.117188 230.039062 C 67.660156 233.261719 71.128906 234.941406 74.484375 234.355469 L 74.488281 234.378906 L 246.359375 205.101562 L 267.265625 234.21875 C 269.78125 237.710938 274.65625 238.503906 278.144531 235.988281 C 281.636719 233.476562 282.429688 228.601562 279.914062 225.109375 L 256.5 192.5 C 254.878906 189.824219 251.734375 188.277344 248.46875 188.847656 L 77.589844 217.949219 L 48.746094 157.957031 L 52.28125 156.503906 C 59.789062 172.140625 72.738281 187.332031 84.96875 184.054688 C 157.273438 156.863281 222.761719 128.910156 295.066406 101.71875 C 308.328125 98.0625 283.597656 15.609375 258.410156 25.160156 C 185.359375 49.476562 125.515625 70.246094 52.464844 94.558594 Z M 52.464844 94.558594 " fill-opacity="1" fill-rule="evenodd"/><path fill="#ffffff" d="M 79.46875 93.890625 C 99.800781 112.84375 109.167969 137.359375 104.101562 169.203125 C 164.992188 146.035156 222.746094 122.347656 283.632812 99.179688 C 300.738281 90.3125 274.71875 29.589844 258.519531 34.730469 C 197.792969 54.277344 140.195312 74.347656 79.46875 93.890625 Z M 79.46875 93.890625 " fill-opacity="1" fill-rule="evenodd"/><path stroke-linecap="round" transform="matrix(6.321899, 0, 0, 6.322922, -1479.978666, -569.935559)" fill="none" stroke-linejoin="round" d="M 243.603577 108.542644 C 246.181422 110.519578 247.059446 112.821471 245.83602 115.524928 " stroke="#ffffff" stroke-width="1.417" stroke-opacity="1" stroke-miterlimit="4"/><path fill="#e30016" d="M 560.679688 696.609375 L 591.046875 674.605469 L 439.949219 454.945312 L 412.21875 466.261719 Z M 560.679688 696.609375 " fill-opacity="1" fill-rule="evenodd"/><path fill="#e30016" d="M 367.59375 344.363281 C 357.933594 343.585938 348.761719 345.289062 340.382812 350.957031 L 288.484375 273.535156 L 310.148438 258.832031 C 329.296875 287.34375 348.445312 315.851562 367.59375 344.363281 Z M 367.59375 344.363281 " fill-opacity="1" fill-rule="evenodd"/><path fill="#e30016" d="M 283.4375 266.59375 L 304.742188 250.90625 L 280.484375 217.699219 L 260.5 232.613281 Z M 283.4375 266.59375 " fill-opacity="1" fill-rule="evenodd"/></svg>